# xmcd CD database file
#
# Track frame offsets:
#	150
#	22300
#	45482
#	60882
#	80015
#	100635
#	127607
#	144755
#	161120
#	191822
#	220555
#	245312
#
# Disc length: 3584 seconds
#
# Revision: 0
# Processed by: cddbd v1.5.1PL0 Copyright (c) Steve Scherf et al.
# Submitted via: CDex 1.51
#
DISCID=930dfe0c
DTITLE=Sampler - Dinner Party
DYEAR=1900
DGENRE=New Age
TTITLE0=Evening, Yes - Ray Lynch
TTITLE1=And then wondered If You Know - Denny Zeitlin
TTITLE2=The Happy Couple - Michael Hedges
TTITLE3=You are so Beautiful - Liz Story
TTITLE4=Indian Summer - Alex de Grassi
TTITLE5=The End of Innocence - Billy Childs
TTITLE6=Going to the Sun - Philip Aaberg
TTITLE7=Oyasumni Nasai - Michael Manring
TTITLE8=Chocolate Fog - Andy Narell
TTITLE9=Run and Hide - John Beasley
TTITLE10=Mistico - Scott Cossu
TTITLE11=A Thing of Beauty - Henry Butler
EXTD=
EXTT0=
EXTT1=
EXTT2=
EXTT3=
EXTT4=
EXTT5=
EXTT6=
EXTT7=
EXTT8=
EXTT9=
EXTT10=
EXTT11=
PLAYORDER=
